HIERARCHY
ROOT Hips
{
    OFFSET 0.000000 0.000000 0.000000
    CHANNELS 6 Xposition Yposition Zposition Zrotation Xrotation Yrotation
    JOINT Spine
    {
        OFFSET -0.000000 7.236184 0.000000
        CHANNELS 3 Zrotation Xrotation Yrotation
        JOINT Spine1
        {
            OFFSET -0.000000 20.420147 0.000000
            CHANNELS 3 Zrotation Xrotation Yrotation
            JOINT Neck
            {
                OFFSET -0.000000 20.336288 1.848754
                CHANNELS 3 Zrotation Xrotation Yrotation
                JOINT Head
                {
                    OFFSET -0.000000 12.354461 -1.764923
                    CHANNELS 3 Zrotation Xrotation Yrotation
                    End Site
                    {
                        OFFSET -0.000000 22.061537 0.000000
                    }
                }
            }
            JOINT LeftShoulder
            {
                OFFSET 3.573296 18.396038 -0.314103
                CHANNELS 3 Zrotation Xrotation Yrotation
                JOINT LeftArm
                {
                    OFFSET 10.880760 0.000000 0.000000
                    CHANNELS 3 Zrotation Xrotation Yrotation
                    JOINT LeftForeArm
                    {
                        OFFSET 27.185530 0.000000 0.000000
                        CHANNELS 3 Zrotation Xrotation Yrotation
                        JOINT LeftHand
                        {
                            OFFSET 27.825975 0.000000 0.000000
                            CHANNELS 3 Zrotation Xrotation Yrotation
                            End Site
                            {
                                OFFSET 13.236923 0.000000 0.000000
                            }
                        }
                    }
                }
            }
            JOINT RightShoulder
            {
                OFFSET -3.474926 18.396038 -0.314103
                CHANNELS 3 Zrotation Xrotation Yrotation
                JOINT RightArm
                {
                    OFFSET -10.880760 0.000000 0.000000
                    CHANNELS 3 Zrotation Xrotation Yrotation
                    JOINT RightForeArm
                    {
                        OFFSET -27.185530 0.000000 0.000000
                        CHANNELS 3 Zrotation Xrotation Yrotation
                        JOINT RightHand
                        {
                            OFFSET -27.825975 0.000000 0.000000
                            CHANNELS 3 Zrotation Xrotation Yrotation
                            End Site
                            {
                                OFFSET -13.236923 0.000000 0.000000
                            }
                        }
                    }
                }
            }
        }
    }
    JOINT LeftUpLeg
    {
        OFFSET 8.824615 0.000000 0.000000
        CHANNELS 3 Zrotation Xrotation Yrotation
        JOINT LeftLeg
        {
            OFFSET -0.000000 -35.111282 0.000000
            CHANNELS 3 Zrotation Xrotation Yrotation
            JOINT LeftFoot
            {
                OFFSET -0.000000 -42.324711 0.000000
                CHANNELS 3 Zrotation Xrotation Yrotation
                JOINT LeftToeBase
                {
                    OFFSET -0.000000 -5.735999 13.236923
                    CHANNELS 3 Zrotation Xrotation Yrotation
                    End Site
                    {
                        OFFSET -0.000000 0.000000 3.529846
                    }
                }
            }
        }
    }
    JOINT RightUpLeg
    {
        OFFSET -8.824615 0.000000 0.000000
        CHANNELS 3 Zrotation Xrotation Yrotation
        JOINT RightLeg
        {
            OFFSET -0.000000 -35.111282 0.000000
            CHANNELS 3 Zrotation Xrotation Yrotation
            JOINT RightFoot
            {
                OFFSET -0.000000 -42.324711 0.000000
                CHANNELS 3 Zrotation Xrotation Yrotation
                JOINT RightToeBase
                {
                    OFFSET -0.000000 -5.735999 13.236923
                    CHANNELS 3 Zrotation Xrotation Yrotation
                    End Site
                    {
                        OFFSET -0.000000 0.000000 3.529846
                    }
                }
            }
        }
    }
}
MOTION
Frames:    12
Frame Time:    0.008333
-24.431641    82.670448    108.150253    -0.808245    -9.171656    -172.297867    -1.947406    -12.685960    0.224898    0.432077    6.753885    0.415986    1.789292    5.872011    -2.961791    5.950699    -13.528040    -1.722312    -1.198413    17.481333    -2.307807    -37.189774    46.368923    -46.162178    0.808366    -5.053405    -28.881939    9.559153    -4.696462    1.794118    8.134534    17.434978    -4.690157    30.398569    47.944572    45.676929    -2.113751    -11.699862    34.969543    -7.471177    -11.028275    -0.291950    -1.335760    -15.072814    -7.437037    -0.482780    17.317421    0.065027    -0.234666    -8.599772    -8.232832    0.010901    -1.203574    -0.012110    -2.086171    -5.736948    0.968711    3.020701    4.811836    0.852015    -1.484035    -6.221165    -14.175490    -1.854383    0.254037    2.004934    
-24.447165    82.671501    108.132027    -0.804322    -9.174235    -172.274704    -1.937872    -12.672020    0.234761    0.431287    6.741264    0.424531    1.779770    5.857110    -2.963381    5.948148    -13.562902    -1.722181    -1.158975    17.446430    -2.305362    -37.183647    46.347160    -46.075436    1.003648    -5.086376    -29.838499    9.347359    -4.672548    1.808572    8.076960    17.382088    -4.669143    30.316906    47.952454    45.643509    -2.186457    -11.726363    36.084976    -6.933954    -11.011668    -0.275096    -1.326503    -15.016945    -7.459675    -0.499732    17.231867    0.068237    -0.270337    -8.601621    -8.251763    0.018827    -1.189150    -0.020915    -2.088258    -5.742431    0.955407    3.012239    4.853420    0.901627    -1.488405    -6.244092    -14.231236    -1.836336    0.232859    1.985480
-24.463150    82.672760    108.113251    -0.800741    -9.181601    -172.251617    -1.927434    -12.663106    0.243626    0.428011    6.725331    0.432388    1.770830    5.846032    -2.964886    5.947225    -13.592540    -1.721838    -1.117493    17.408833    -2.304049    -37.179207    46.333950    -45.983990    1.205192    -5.130734    -30.821821    9.159202    -4.653631    1.830103    8.016425    17.326263    -4.647462    30.231602    47.966412    45.613453    -2.264835    -11.755018    37.226768    -6.399279    -10.992491    -0.266420    -1.318212    -14.966714    -7.480187    -0.516501    17.148384    0.071356    -0.309244    -8.603498    -8.273625    0.027109    -1.174960    -0.030114    -2.091489    -5.756845    0.944518    3.003985    4.904365    0.960655    -1.496228    -6.268941    -14.298025    -1.814659    0.208775    1.962109
-24.479553    82.674072    108.093056    -0.798285    -9.186989    -172.228775    -1.915938    -12.652724    0.251662    0.422353    6.706516    0.439355    1.762101    5.838881    -2.966535    5.948174    -13.617107    -1.721354    -1.074589    17.369226    -2.303181    -37.178501    46.327988    -45.888546    1.409443    -5.186501    -31.820013    8.994298    -4.640535    1.858276    7.953664    17.268997    -4.625664    30.142040    47.987022    45.590000    -2.351578    -11.785528    38.382126    -5.875939    -10.969570    -0.266520    -1.310413    -14.914357    -7.495718    -0.532583    17.066416    0.071228    -0.350662    -8.605595    -8.297758    0.035645    -1.161571    -0.039596    -2.095571    -5.772285    0.935756    2.995845    4.963424    1.024730    -1.507330    -6.295344    -14.370615    -1.788903    0.181675    1.934330
-24.496119    82.675453    108.071663    -0.796772    -9.190237    -172.206223    -1.903423    -12.640869    0.258701    0.414639    6.685281    0.445376    1.753302    5.835131    -2.968451    5.950804    -13.636460    -1.720899    -1.031379    17.328762    -2.302218    -37.182549    46.327805    -45.790169    1.612610    -5.253768    -32.819599    8.850943    -4.634655    1.891932    7.889727    17.211733    -4.604107    30.048815    48.013214    45.575142    -2.447368    -11.816954    39.535934    -5.373333    -10.941899    -0.274916    -1.302780    -14.860229    -7.504128    -0.547422    16.986532    0.065970    -0.394137    -8.607800    -8.324057    0.044198    -1.148429    -0.049095    -2.099792    -5.789503    0.927677    2.987069    5.031428    1.089898    -1.521150    -6.323030    -14.443248    -1.758491    0.151321    1.901527
-24.513336    82.676804    108.047714    -0.796547    -9.186684    -172.183197    -1.889385    -12.622403    0.265018    0.404888    6.661174    0.450537    1.743903    5.834386    -2.970796    5.955164    -13.651430    -1.720572    -0.986887    17.286465    -2.300756    -37.193699    46.332314    -45.685261    1.819054    -5.335617    -33.847500    8.720252    -4.637393    1.931688    7.823020    17.153107    -4.582018    29.950098    48.045536    45.568890    -2.556559    -11.850371    40.719868    -4.879139    -10.907993    -0.290359    -1.294468    -14.796717    -7.505829    -0.561896    16.905111    0.054970    -0.440408    -8.610278    -8.352573    0.052996    -1.135394    -0.058866    -2.103811    -5.803988    0.919506    2.977170    5.110909    1.157697    -1.538489    -6.352956    -14.516839    -1.721630    0.115828    1.861759
-24.530394    82.678299    108.023285    -0.796900    -9.184325    -172.160309    -1.874776    -12.604952    0.270210    0.393643    6.634300    0.454618    1.734452    5.837158    -2.973586    5.960196    -13.662738    -1.720664    -0.943082    17.244629    -2.298534    -37.212612    46.340488    -45.578274    2.019593    -5.430274    -34.862495    8.603405    -4.650372    1.976616    7.756452    17.096270    -4.560472    29.849174    48.082458    45.573139    -2.675920    -11.885775    41.887306    -4.413786    -10.869829    -0.310348    -1.286186    -14.735748    -7.502466    -0.576259    16.826363    0.040841    -0.487417    -8.612511    -8.382854    0.061581    -1.122487    -0.068400    -2.107492    -5.826518    0.909376    2.965697    5.203604    1.225590    -1.558590    -6.384481    -14.586628    -1.678507    0.075908    1.815226
-24.547594    82.679787    107.997223    -0.798394    -9.177382    -172.137100    -1.859247    -12.582604    0.274644    0.380989    6.604795    0.457606    1.724322    5.842227    -2.977010    5.966191    -13.670174    -1.721263    -0.899607    17.203140    -2.295302    -37.240261    46.351818    -45.468189    2.216505    -5.539823    -35.878262    8.495760    -4.674794    2.029286    7.689311    17.040771    -4.539461    29.745022    48.123989    45.588444    -2.806161    -11.925254    43.055107    -3.968580    -10.828587    -0.331456    -1.277301    -14.668577    -7.498953    -0.592338    16.746279    0.029369    -0.535671    -8.613890    -8.416045    0.070053    -1.109346    -0.077809    -2.110538    -5.851418    0.896753    2.952396    5.311471    1.295629    -1.582217    -6.418333    -14.654256    -1.628086    0.030217    1.760810
-24.564322    82.681267    107.971252    -0.800607    -9.171615    -172.114120    -1.843688    -12.560591    0.277942    0.367380    6.573015    0.459731    1.713951    5.849290    -2.981022    5.972334    -13.674630    -1.722494    -0.858259    17.163509    -2.291176    -37.276558    46.365238    -45.358524    2.402629    -5.660851    -36.862217    8.400085    -4.710332    2.090670    7.624233    16.988434    -4.519758    29.640732    48.169010    45.614895    -2.941420    -11.970354    44.186695    -3.553707    -10.789011    -0.347441    -1.268583    -14.603679    -7.500841    -0.611277    16.667446    0.027277    -0.583533    -8.613705    -8.451958    0.077981    -1.096585    -0.086612    -2.113142    -5.886435    0.880879    2.937446    5.435461    1.366293    -1.608605    -6.454375    -14.717685    -1.571827    -0.020044    1.700082
-24.581409    82.682663    107.944191    -0.804253    -9.166275    -172.090424    -1.827856    -12.536550    0.280482    0.352205    6.537086    0.461249    1.702912    5.858372    -2.985731    5.978553    -13.677392    -1.724455    -0.817086    17.124947    -2.285727    -37.322811    46.380741    -45.245560    2.586122    -5.799510    -37.860535    8.313559    -4.759361    2.165821    7.558569    16.936895    -4.500666    29.531338    48.219456    45.654282    -3.085534    -12.025332    45.335705    -3.146360    -10.752233    -0.353208    -1.260248    -14.537355    -7.511280    -0.634736    16.585968    0.038337    -0.633234    -8.611877    -8.492878    0.085733    -1.083544    -0.095220    -2.116021    -5.934533    0.860880    2.920332    5.584671    1.441716    -1.638764    -6.495670    -14.781306    -1.508194    -0.076751    1.631386
-24.597948    82.683640    107.917595    -0.810225    -9.161258    -172.067780    -1.813571    -12.510675    0.282471    0.336322    6.498943    0.462295    1.691962    5.868299    -2.990872    5.984036    -13.678940    -1.727081    -0.778781    17.089890    -2.279061    -37.376480    46.397625    -45.136719    2.755155    -5.948342    -38.814938    8.244974    -4.820210    2.250807    7.496407    16.888906    -4.483596    29.422979    48.273331    45.705624    -3.229352    -12.087863    46.435772    -2.771288    -10.721344    -0.346909    -1.253924    -14.473044    -7.530462    -0.661473    16.506870    0.063433    -0.681858    -8.608571    -8.536839    0.092690    -1.070773    -0.102944    -2.120262    -5.994920    0.838228    2.902678    5.755210    1.518983    -1.670331    -6.542332    -14.844382    -1.443322    -0.136293    1.561344
-24.614431    82.683960    107.891151    -0.819928    -9.156913    -172.046295    -1.801879    -12.481492    0.284222    0.319596    6.457114    0.463385    1.680782    5.878689    -2.996428    5.988750    -13.680031    -1.730364    -0.742726    17.057894    -2.271388    -37.438766    46.415733    -45.029552    2.913178    -6.110382    -39.749416    8.196916    -4.894669    2.343804    7.436555    16.843405    -4.468161    29.312744    48.331604    45.770550    -3.376656    -12.157611    47.514465    -2.423550    -10.693478    -0.333330    -1.251044    -14.410296    -7.558916    -0.691834    16.429550    0.103534    -0.730570    -8.604184    -8.584765    0.099148    -1.058500    -0.110114    -2.127557    -6.071909    0.813106    2.884963    5.955256    1.600091    -1.703469    -6.597767    -14.910795    -1.379260    -0.197928    1.492171
